<svg xmlns="http://www.w3.org/2000/svg" width="1em" height="1em" viewBox="0 0 512 512">
	<path d="M0 0h512v512H0z" fill="none" />
	<circle cx="256" cy="255.9" r="128" fill="#fff" />
	<linearGradient id="SVGJV8q5dvt" x1="34.4" x2="477.6" y1="438.005" y2="438.005" gradientTransform="translate(0 -278)" gradientUnits="userSpaceOnUse">
		<stop offset="0" stop-color="#d93025" />
		<stop offset="1" stop-color="#ea4335" />
	</linearGradient>
	<path fill="url(#SVGJV8q5dvt)" d="M256 128h221.6C407 5.6 250.5-36.3 128.1 34.3C89.2 56.8 56.8 89.1 34.4 128l110.8 192h.1c-35.4-61.1-14.6-139.3 46.5-174.7c19.4-11.4 41.6-17.3 64.2-17.3" />
	<circle cx="256" cy="256" r="101.3" fill="#1a73e8" />
	<linearGradient id="SVG8UoyhePm" x1="221.07" x2="442.704" y1="786.553" y2="402.672" gradientTransform="translate(0 -278)" gradientUnits="userSpaceOnUse">
		<stop offset="0" stop-color="#fcc934" />
		<stop offset="1" stop-color="#fbbc04" />
	</linearGradient>
	<path fill="url(#SVG8UoyhePm)" d="M366.8 320L256 512c141.3 0 255.9-114.5 255.9-255.9c0-45-11.8-89.1-34.3-128H256v.1c70.6-.1 127.9 57 128.1 127.6c0 22.5-6 44.7-17.3 64.2" />
	<linearGradient id="SVGDvxKPzZS" x1="283.689" x2="62.056" y1="774.014" y2="390.133" gradientTransform="translate(0 -278)" gradientUnits="userSpaceOnUse">
		<stop offset="0" stop-color="#1e8e3e" />
		<stop offset="1" stop-color="#34a853" />
	</linearGradient>
	<path fill="url(#SVGDvxKPzZS)" d="M145.2 320L34.4 128.1C-36.3 250.5 5.6 407 128 477.7c38.9 22.4 83.1 34.3 128 34.3l110.8-192l-.1-.1c-35.2 61.2-113.3 82.3-174.5 47.1c-19.5-11.2-35.8-27.4-47-47" />
</svg>
